<svg id="Layer_1" data-name="Layer 1" xmlns="http://www.w3.org/2000/svg" viewBox="0 0 155.18 137.33"><defs><style>.cls-1{fill:#e84362;}.cls-2{fill:#397abd;}</style></defs><path class="cls-1" d="M28.87,86.93a1.34,1.34,0,0,1,1.19-.14,1.24,1.24,0,0,1,.68,1,1.12,1.12,0,0,1-.5,1.09,16.75,16.75,0,0,0-6.79,13.41,15.72,15.72,0,0,0,15.68,15.68,14.58,14.58,0,0,0,10.48-4.38A14.76,14.76,0,0,0,54,103.07a14,14,0,0,0-14-14,13.25,13.25,0,0,0-13.18,13.18,12.29,12.29,0,0,0,12.31,12.26,11.37,11.37,0,0,0,11.44-11.44A10.58,10.58,0,0,0,40,92.49a9.53,9.53,0,0,0-4.47,1.09,1.21,1.21,0,0,1-1.19-.09,1.12,1.12,0,0,1-.54-1,1.17,1.17,0,0,1,.63-1A12.31,12.31,0,0,1,40,90.12a12.91,12.91,0,0,1,12.94,12.95,14,14,0,0,1-4,9.8,13.79,13.79,0,0,1-9.8,4,14.72,14.72,0,0,1-14.68-14.63A15.57,15.57,0,0,1,40,86.7a16.35,16.35,0,0,1,16.36,16.37A17.28,17.28,0,0,1,39.13,120.3a18,18,0,0,1-18.05-18A18.85,18.85,0,0,1,28.87,86.93Z" transform="translate(-21.08 -34.67)"/><path class="cls-1" d="M62.79,118.93a1.21,1.21,0,0,1-2.42,0V88.11a1.21,1.21,0,0,1,2.42,0ZM86.54,98.51a12.65,12.65,0,0,1-7.2,11.39,1.15,1.15,0,0,1-1.55-.54,1.21,1.21,0,0,1,.54-1.6,10.3,10.3,0,0,0,5.84-9.25,9.45,9.45,0,0,0-9.44-9.39,8.59,8.59,0,0,0-8.57,8.57,7.86,7.86,0,0,0,2.87,6L86.59,118a1.37,1.37,0,0,1,.45.91,1,1,0,0,1-.32.73,1.12,1.12,0,0,1-1.64.18L67.53,105.48a10,10,0,0,1-3.74-7.79A10.94,10.94,0,0,1,74.73,86.75,11.8,11.8,0,0,1,86.54,98.51Zm-5.15,21.15a1.18,1.18,0,0,1-1.69.18L66.62,109.13a.29.29,0,0,0-.37,0,.41.41,0,0,0-.09.19v9.57A1.18,1.18,0,0,1,65,120.12a1.21,1.21,0,0,1-1.19-1.19V106.3a1.41,1.41,0,0,1,.28-.77,1.21,1.21,0,0,1,1.68-.18L81.21,118A1.16,1.16,0,0,1,81.39,119.66Zm-6.66-29.5a8.36,8.36,0,0,1,8.39,8.35,9.18,9.18,0,0,1-7,9,1.18,1.18,0,0,1-1.46-.87,1.17,1.17,0,0,1,.87-1.41,6.84,6.84,0,0,0,5.24-6.7,6,6,0,0,0-6-6,5.37,5.37,0,0,0-3.83,1.73,1.16,1.16,0,0,1-1.68.09,1.21,1.21,0,0,1-.09-1.68A7.53,7.53,0,0,1,74.73,90.16Z" transform="translate(-21.08 -34.67)"/><path class="cls-1" d="M94.93,113.37a1,1,0,0,0,1,1h11a2.25,2.25,0,0,0,2.23-1.87,2.3,2.3,0,0,0-1.46-2.55,1.21,1.21,0,0,1-.77-.91,1.25,1.25,0,0,1,.41-1.1,1.22,1.22,0,0,1,1.18-.22,4.65,4.65,0,0,1-1.59,9H93.56a1,1,0,0,1-1-1V105.07a1,1,0,0,1,1-1h13.36a8,8,0,0,1,0,16.05H90.19a1,1,0,0,1-1-1V88a1,1,0,0,1,1-1h16.73a8,8,0,0,1,0,16H93.56a1,1,0,0,1-1-1V91.35a1,1,0,0,1,1-1h13.36a4.65,4.65,0,0,1,1.59,9,1.2,1.2,0,0,1-1.55-.73,1.18,1.18,0,0,1,.73-1.5,2.28,2.28,0,0,0,1.46-2.55,2.25,2.25,0,0,0-2.23-1.87h-11a1,1,0,0,0-1,1v5.93a1,1,0,0,0,1,1h11a5.59,5.59,0,0,0,4.88-2.83,5.46,5.46,0,0,0,0-5.65,5.59,5.59,0,0,0-4.88-2.83H92.56a1,1,0,0,0-1,1v26.39a1,1,0,0,0,1,1h14.36a5.66,5.66,0,0,0,0-11.31h-11a1,1,0,0,0-1,1Z" transform="translate(-21.08 -34.67)"/><path class="cls-1" d="M119.87,88.16A1.14,1.14,0,0,1,121,87a1.19,1.19,0,0,1,1.23,1.19v30.77a1.19,1.19,0,0,1-1.19,1.19,1.15,1.15,0,0,1-1.18-1.19Zm3.32,0a1.21,1.21,0,0,1,2.42,0v30.77a1.21,1.21,0,0,1-2.42,0Z" transform="translate(-21.08 -34.67)"/><path class="cls-1" d="M153.05,86.88a1.21,1.21,0,0,1,0,2.42H130a1.21,1.21,0,0,1,0-2.42ZM130,92.67a1.18,1.18,0,0,1-1.19-1.18A1.15,1.15,0,0,1,130,90.3h9.84A1.15,1.15,0,0,1,141,91.49v27.35a1.21,1.21,0,0,1-2.42,0V92.67Zm14.45,26.17a1.21,1.21,0,0,1-2.42,0V91.49a1.15,1.15,0,0,1,1.19-1.19h9.84a1.14,1.14,0,0,1,1.19,1.14,1.19,1.19,0,0,1-1.19,1.23h-8.61Z" transform="translate(-21.08 -34.67)"/><path class="cls-1" d="M172.84,112.37a4,4,0,0,1-1.6,3.28c-1.32.91-3.51,1-6.7,1h-7.61a1.21,1.21,0,0,1-1.19-1.19,1.18,1.18,0,0,1,1.19-1.18h7.61c2.69,0,4.47,0,5.29-.6a1.79,1.79,0,0,0,.64-1.36,5.84,5.84,0,0,0-1.78-3.47l-8.43-9.16a7.6,7.6,0,0,1-2.37-5.52c0-4.92,2.32-6.93,7.52-6.93h8.89a1.2,1.2,0,0,1,1.18,1.19,1.17,1.17,0,0,1-1.18,1.18h-8.89c-3.56,0-5.15,1.33-5.15,4.56A5.33,5.33,0,0,0,162,98.14l8.43,9.17C172,109.13,172.84,110.77,172.84,112.37Zm-8.3,5.38c3.42,0,5.84-.14,7.34-1.24a5,5,0,0,0,2-4.14c0-1.83-.92-3.74-2.69-5.75l-8.44-9.21a4.47,4.47,0,0,1-1.46-3.19c0-2.51,1.28-3.51,4.11-3.51h8.89a1.2,1.2,0,0,1,1.18,1.19,1.17,1.17,0,0,1-1.18,1.18h-8.89c-1.19,0-1.74.32-1.74,1.14a2.35,2.35,0,0,0,.83,1.55l8.43,9.21c2.23,2.51,3.33,4.88,3.33,7.39a7.44,7.44,0,0,1-3,6.06c-2,1.5-4.83,1.69-8.75,1.69h-7.61a1.21,1.21,0,0,1-1.19-1.19,1.18,1.18,0,0,1,1.19-1.18Z" transform="translate(-21.08 -34.67)"/><path class="cls-2" d="M98.67,36.63A66.82,66.82,0,0,1,161.8,81.79a1,1,0,0,0,.94.68h0a1,1,0,0,0,.93-1.31q-.78-2.3-1.73-4.55a68.7,68.7,0,0,0-126.54,0q-1,2.25-1.74,4.55a1,1,0,0,0,.94,1.31h0a1,1,0,0,0,.93-.68A66.83,66.83,0,0,1,98.67,36.63Zm0,133.41a66.82,66.82,0,0,1-63.14-45.17,1,1,0,0,0-.93-.67h0a1,1,0,0,0-.94,1.31q.78,2.3,1.74,4.55a68.71,68.71,0,0,0,126.54,0q.94-2.25,1.73-4.55a1,1,0,0,0-.93-1.31h0a1,1,0,0,0-.94.67A66.82,66.82,0,0,1,98.67,170Z" transform="translate(-21.08 -34.67)"/><path class="cls-2" d="M98.67,51.7a51.71,51.71,0,0,1,47,30.31.75.75,0,0,0,.7.46h0a.77.77,0,0,0,.69-1.09,53.17,53.17,0,0,0-96.83,0,.77.77,0,0,0,.7,1.09h0a.78.78,0,0,0,.7-.46A51.69,51.69,0,0,1,98.67,51.7Zm0,103.27a51.69,51.69,0,0,1-47-30.32.78.78,0,0,0-.7-.45h0a.77.77,0,0,0-.7,1.09,53.17,53.17,0,0,0,96.83,0,.77.77,0,0,0-.69-1.09h0a.76.76,0,0,0-.7.45A51.7,51.7,0,0,1,98.67,155Z" transform="translate(-21.08 -34.67)"/><path class="cls-2" d="M98.67,66.08a37.22,37.22,0,0,1,30.67,16.14.56.56,0,0,0,.46.25h0a.56.56,0,0,0,.46-.88,38.32,38.32,0,0,0-58.71-5.37,38.78,38.78,0,0,0-4.48,5.37.56.56,0,0,0,.46.88h0a.56.56,0,0,0,.46-.25A37.24,37.24,0,0,1,98.67,66.08Zm0,74.5A37.22,37.22,0,0,1,68,124.44a.57.57,0,0,0-.46-.24h0a.56.56,0,0,0-.46.87,38.86,38.86,0,0,0,4.48,5.38,38.36,38.36,0,0,0,58.71-5.38.55.55,0,0,0-.46-.87h0a.57.57,0,0,0-.46.24A37.2,37.2,0,0,1,98.67,140.58Z" transform="translate(-21.08 -34.67)"/><circle class="cls-2" cx="17.49" cy="68.31" r="5.53"/></svg>